<svg xmlns="http://www.w3.org/2000/svg" viewBox="0 0 820 240" role="img" aria-labelledby="title desc">
  <title id="title">Vastrini Label</title>
  <desc id="desc">Vastrini Label monogram logo in red with the brand wordmark.</desc>
  <rect width="820" height="240" fill="#ffffff"/>
  <g fill="#c51212">
    <path d="M60 52c18 0 31 13 31 30 0 10-4 19-10 26l2 3c6-8 16-13 27-13 17 0 30 13 30 30 0 8-3 15-8 21l13 31h-17l-9-24c-4 2-8 3-12 3-7 0-14-2-19-7l-17 28H53l25-41c-11-9-18-23-18-39 0-27 21-48 48-48Zm0 15c-17 0-31 14-31 33s14 33 31 33 31-14 31-33S77 67 60 67Z"/>
    <path d="M188 42h48l44 132 45-132h31l-62 176h-38L188 42Z"/>
    <path d="M375 64h28v122h-28V64Zm14-38c10 0 18 8 18 18s-8 18-18 18-18-8-18-18 8-18 18-18Z"/>
    <path d="M455 64h28v24c10-17 26-28 47-28 36 0 56 24 56 62v64h-28v-58c0-27-12-43-35-43-23 0-40 18-40 46v55h-28V64Z"/>
    <path d="M648 64h28v122h-28V64Zm14-38c10 0 18 8 18 18s-8 18-18 18-18-8-18-18 8-18 18-18Z"/>
    <path d="M719 42h29v144h68v32h-97V42Z"/>
    <path d="M289 112c57-13 109-10 167 10 45 15 91 19 139 9-38 24-83 27-145 7-47-15-98-17-161-6Z"/>
    <path d="M615 79l7 15 17 2-12 11 3 17-15-8-15 8 3-17-12-11 17-2 7-15Z"/>
  </g>
  <g fill="#c51212">
    <path d="M36 214l24-56h5l24 56h-8l-7-17H51l-7 17h-8Zm18-24h17l-8-21-9 21Z"/>
    <path d="M101 214l-20-56h8l15 44 15-44h5l15 44 15-44h8l-20 56h-7l-14-41-14 41h-6Z"/>
    <path d="M176 214v-56h8v56h-8Z"/>
    <path d="M207 214v-56h19c17 0 29 11 29 28 0 17-12 28-29 28h-19Zm8-7h10c13 0 21-8 21-21s-8-21-21-21h-10v42Z"/>
    <path d="M275 214v-56h37v7h-29v17h27v7h-27v18h30v7h-38Z"/>
    <path d="M330 214v-56h8v49h28v7h-36Z"/>
    <path d="M384 214v-56h8v49h28v7h-36Z"/>
    <path d="M436 214v-56h8v56h-8Z"/>
    <path d="M467 214v-56h6l34 43v-43h8v56h-6l-34-43v43h-8Z"/>
    <path d="M539 214v-56h37v7h-29v17h27v7h-27v18h30v7h-38Z"/>
    <path d="M592 208l3-6c5 4 11 7 18 7 8 0 13-4 13-10 0-6-4-9-14-11-12-3-19-8-19-18 0-10 9-18 21-18 8 0 15 2 20 7l-4 6c-5-4-10-6-16-6-7 0-12 4-12 10 0 6 4 9 15 11 12 3 19 8 19 18 0 11-9 18-22 18-9 0-17-3-22-8Z"/>
    <path d="M654 214v-49h-18v-7h44v7h-18v49h-8Z"/>
    <path d="M689 214l24-56h5l24 56h-8l-7-17h-23l-7 17h-8Zm18-24h17l-8-21-9 21Z"/>
    <path d="M757 214v-49h-18v-7h44v7h-18v49h-8Z"/>
  </g>
</svg>
